<?xml version="1.0" encoding="utf-8" standalone="no"?>
<!DOCTYPE svg PUBLIC "-//W3C//DTD SVG 1.1//EN"
  "http://www.w3.org/Graphics/SVG/1.1/DTD/svg11.dtd">
<svg height="508.103594pt" version="1.1" viewBox="0 0 507.438437 508.103594" width="507.438437pt" xmlns="http://www.w3.org/2000/svg" xmlns:xlink="http://www.w3.org/1999/xlink">
 <metadata>
  <rdf:RDF xmlns:cc="http://creativecommons.org/ns#" xmlns:dc="http://purl.org/dc/elements/1.1/" xmlns:rdf="http://www.w3.org/1999/02/22-rdf-syntax-ns#">
   <cc:Work>
    <dc:type rdf:resource="http://purl.org/dc/dcmitype/StillImage"/>
    <dc:date>2021-07-22T10:22:28.664718</dc:date>
    <dc:format>image/svg+xml</dc:format>
    <dc:creator>
     <cc:Agent>
      <dc:title>Matplotlib v3.4.2, https://matplotlib.org/</dc:title>
     </cc:Agent>
    </dc:creator>
   </cc:Work>
  </rdf:RDF>
 </metadata>
 <defs>
  <style type="text/css">*{stroke-linecap:butt;stroke-linejoin:round;}</style>
 </defs>
 <g id="figure_1">
  <g id="patch_1">
   <path d="M 0 508.103594 
L 507.438437 508.103594 
L 507.438437 0 
L 0 0 
z
" style="fill:#ffffff;"/>
  </g>
  <g id="axes_1">
   <g id="patch_2">
    <path d="M 43.908437 227.599375 
L 262.593437 227.599375 
L 262.593437 21.789375 
L 43.908437 21.789375 
z
" style="fill:#ffffff;"/>
   </g>
   <g id="matplotlib.axis_1">
    <g id="xtick_1">
     <g id="line2d_1">
      <defs>
       <path d="M 0 0 
L 0 6 
" id="m4992048040" style="stroke:#262626;stroke-width:1.25;"/>
      </defs>
      <g>
       <use style="fill:#262626;stroke:#262626;stroke-width:1.25;" x="58.487437" xlink:href="#m4992048040" y="227.599375"/>
      </g>
     </g>
    </g>
    <g id="xtick_2">
     <g id="line2d_2">
      <g>
       <use style="fill:#262626;stroke:#262626;stroke-width:1.25;" x="94.934937" xlink:href="#m4992048040" y="227.599375"/>
      </g>
     </g>
    </g>
    <g id="xtick_3">
     <g id="line2d_3">
      <g>
       <use style="fill:#262626;stroke:#262626;stroke-width:1.25;" x="131.382437" xlink:href="#m4992048040" y="227.599375"/>
      </g>
     </g>
    </g>
    <g id="xtick_4">
     <g id="line2d_4">
      <g>
       <use style="fill:#262626;stroke:#262626;stroke-width:1.25;" x="167.829937" xlink:href="#m4992048040" y="227.599375"/>
      </g>
     </g>
    </g>
    <g id="xtick_5">
     <g id="line2d_5">
      <g>
       <use style="fill:#262626;stroke:#262626;stroke-width:1.25;" x="204.277437" xlink:href="#m4992048040" y="227.599375"/>
      </g>
     </g>
    </g>
    <g id="xtick_6">
     <g id="line2d_6">
      <g>
       <use style="fill:#262626;stroke:#262626;stroke-width:1.25;" x="240.724937" xlink:href="#m4992048040" y="227.599375"/>
      </g>
     </g>
    </g>
   </g>
   <g id="matplotlib.axis_2">
    <g id="ytick_1">
     <g id="line2d_7">
      <defs>
       <path d="M 0 0 
L -6 0 
" id="m954537abf5" style="stroke:#262626;stroke-width:1.25;"/>
      </defs>
      <g>
       <use style="fill:#262626;stroke:#262626;stroke-width:1.25;" x="43.908437" xlink:href="#m954537abf5" y="200.776533"/>
      </g>
     </g>
     <g id="text_1">
      <!-- 4 -->
      <g style="fill:#262626;" transform="translate(28.291406 204.71333)scale(0.11 -0.11)">
       <defs>
        <path d="M 2069 0 
L 2069 1097 
L 81 1097 
L 81 1613 
L 2172 4581 
L 2631 4581 
L 2631 1613 
L 3250 1613 
L 3250 1097 
L 2631 1097 
L 2631 0 
L 2069 0 
z
M 2069 1613 
L 2069 3678 
L 634 1613 
L 2069 1613 
z
" id="ArialMT-34" transform="scale(0.015625)"/>
       </defs>
       <use xlink:href="#ArialMT-34"/>
      </g>
     </g>
    </g>
    <g id="ytick_2">
     <g id="line2d_8">
      <g>
       <use style="fill:#262626;stroke:#262626;stroke-width:1.25;" x="43.908437" xlink:href="#m954537abf5" y="161.959105"/>
      </g>
     </g>
     <g id="text_2">
      <!-- 6 -->
      <g style="fill:#262626;" transform="translate(28.291406 165.895902)scale(0.11 -0.11)">
       <defs>
        <path d="M 3184 3459 
L 2625 3416 
Q 2550 3747 2413 3897 
Q 2184 4138 1850 4138 
Q 1581 4138 1378 3988 
Q 1113 3794 959 3422 
Q 806 3050 800 2363 
Q 1003 2672 1297 2822 
Q 1591 2972 1913 2972 
Q 2475 2972 2870 2558 
Q 3266 2144 3266 1488 
Q 3266 1056 3080 686 
Q 2894 316 2569 119 
Q 2244 -78 1831 -78 
Q 1128 -78 684 439 
Q 241 956 241 2144 
Q 241 3472 731 4075 
Q 1159 4600 1884 4600 
Q 2425 4600 2770 4297 
Q 3116 3994 3184 3459 
z
M 888 1484 
Q 888 1194 1011 928 
Q 1134 663 1356 523 
Q 1578 384 1822 384 
Q 2178 384 2434 671 
Q 2691 959 2691 1453 
Q 2691 1928 2437 2201 
Q 2184 2475 1800 2475 
Q 1419 2475 1153 2201 
Q 888 1928 888 1484 
z
" id="ArialMT-36" transform="scale(0.015625)"/>
       </defs>
       <use xlink:href="#ArialMT-36"/>
      </g>
     </g>
    </g>
    <g id="ytick_3">
     <g id="line2d_9">
      <g>
       <use style="fill:#262626;stroke:#262626;stroke-width:1.25;" x="43.908437" xlink:href="#m954537abf5" y="123.141678"/>
      </g>
     </g>
     <g id="text_3">
      <!-- 8 -->
      <g style="fill:#262626;" transform="translate(28.291406 127.078475)scale(0.11 -0.11)">
       <defs>
        <path d="M 1131 2484 
Q 781 2613 612 2850 
Q 444 3088 444 3419 
Q 444 3919 803 4259 
Q 1163 4600 1759 4600 
Q 2359 4600 2725 4251 
Q 3091 3903 3091 3403 
Q 3091 3084 2923 2848 
Q 2756 2613 2416 2484 
Q 2838 2347 3058 2040 
Q 3278 1734 3278 1309 
Q 3278 722 2862 322 
Q 2447 -78 1769 -78 
Q 1091 -78 675 323 
Q 259 725 259 1325 
Q 259 1772 486 2073 
Q 713 2375 1131 2484 
z
M 1019 3438 
Q 1019 3113 1228 2906 
Q 1438 2700 1772 2700 
Q 2097 2700 2305 2904 
Q 2513 3109 2513 3406 
Q 2513 3716 2298 3927 
Q 2084 4138 1766 4138 
Q 1444 4138 1231 3931 
Q 1019 3725 1019 3438 
z
M 838 1322 
Q 838 1081 952 856 
Q 1066 631 1291 507 
Q 1516 384 1775 384 
Q 2178 384 2440 643 
Q 2703 903 2703 1303 
Q 2703 1709 2433 1975 
Q 2163 2241 1756 2241 
Q 1359 2241 1098 1978 
Q 838 1716 838 1322 
z
" id="ArialMT-38" transform="scale(0.015625)"/>
       </defs>
       <use xlink:href="#ArialMT-38"/>
      </g>
     </g>
    </g>
    <g id="ytick_4">
     <g id="line2d_10">
      <g>
       <use style="fill:#262626;stroke:#262626;stroke-width:1.25;" x="43.908437" xlink:href="#m954537abf5" y="84.324251"/>
      </g>
     </g>
     <g id="text_4">
      <!-- 10 -->
      <g style="fill:#262626;" transform="translate(22.174375 88.261047)scale(0.11 -0.11)">
       <defs>
        <path d="M 2384 0 
L 1822 0 
L 1822 3584 
Q 1619 3391 1289 3197 
Q 959 3003 697 2906 
L 697 3450 
Q 1169 3672 1522 3987 
Q 1875 4303 2022 4600 
L 2384 4600 
L 2384 0 
z
" id="ArialMT-31" transform="scale(0.015625)"/>
        <path d="M 266 2259 
Q 266 3072 433 3567 
Q 600 4063 929 4331 
Q 1259 4600 1759 4600 
Q 2128 4600 2406 4451 
Q 2684 4303 2865 4023 
Q 3047 3744 3150 3342 
Q 3253 2941 3253 2259 
Q 3253 1453 3087 958 
Q 2922 463 2592 192 
Q 2263 -78 1759 -78 
Q 1097 -78 719 397 
Q 266 969 266 2259 
z
M 844 2259 
Q 844 1131 1108 757 
Q 1372 384 1759 384 
Q 2147 384 2411 759 
Q 2675 1134 2675 2259 
Q 2675 3391 2411 3762 
Q 2147 4134 1753 4134 
Q 1366 4134 1134 3806 
Q 844 3388 844 2259 
z
" id="ArialMT-30" transform="scale(0.015625)"/>
       </defs>
       <use xlink:href="#ArialMT-31"/>
       <use x="55.615234" xlink:href="#ArialMT-30"/>
      </g>
     </g>
    </g>
    <g id="ytick_5">
     <g id="line2d_11">
      <g>
       <use style="fill:#262626;stroke:#262626;stroke-width:1.25;" x="43.908437" xlink:href="#m954537abf5" y="45.506823"/>
      </g>
     </g>
     <g id="text_5">
      <!-- 12 -->
      <g style="fill:#262626;" transform="translate(22.174375 49.44362)scale(0.11 -0.11)">
       <defs>
        <path d="M 3222 541 
L 3222 0 
L 194 0 
Q 188 203 259 391 
Q 375 700 629 1000 
Q 884 1300 1366 1694 
Q 2113 2306 2375 2664 
Q 2638 3022 2638 3341 
Q 2638 3675 2398 3904 
Q 2159 4134 1775 4134 
Q 1369 4134 1125 3890 
Q 881 3647 878 3216 
L 300 3275 
Q 359 3922 746 4261 
Q 1134 4600 1788 4600 
Q 2447 4600 2831 4234 
Q 3216 3869 3216 3328 
Q 3216 3053 3103 2787 
Q 2991 2522 2730 2228 
Q 2469 1934 1863 1422 
Q 1356 997 1212 845 
Q 1069 694 975 541 
L 3222 541 
z
" id="ArialMT-32" transform="scale(0.015625)"/>
       </defs>
       <use xlink:href="#ArialMT-31"/>
       <use x="55.615234" xlink:href="#ArialMT-32"/>
      </g>
     </g>
    </g>
    <g id="text_6">
     <!-- y -->
     <g style="fill:#262626;" transform="translate(15.64875 127.694375)rotate(-90)scale(0.12 -0.12)">
      <defs>
       <path d="M 397 -1278 
L 334 -750 
Q 519 -800 656 -800 
Q 844 -800 956 -737 
Q 1069 -675 1141 -563 
Q 1194 -478 1313 -144 
Q 1328 -97 1363 -6 
L 103 3319 
L 709 3319 
L 1400 1397 
Q 1534 1031 1641 628 
Q 1738 1016 1872 1384 
L 2581 3319 
L 3144 3319 
L 1881 -56 
Q 1678 -603 1566 -809 
Q 1416 -1088 1222 -1217 
Q 1028 -1347 759 -1347 
Q 597 -1347 397 -1278 
z
" id="ArialMT-79" transform="scale(0.015625)"/>
      </defs>
      <use xlink:href="#ArialMT-79"/>
     </g>
    </g>
   </g>
   <g id="PathCollection_1">
    <defs>
     <path d="M 0 3.535534 
C 0.937635 3.535534 1.836992 3.163008 2.5 2.5 
C 3.163008 1.836992 3.535534 0.937635 3.535534 0 
C 3.535534 -0.937635 3.163008 -1.836992 2.5 -2.5 
C 1.836992 -3.163008 0.937635 -3.535534 0 -3.535534 
C -0.937635 -3.535534 -1.836992 -3.163008 -2.5 -2.5 
C -3.163008 -1.836992 -3.535534 -0.937635 -3.535534 0 
C -3.535534 0.937635 -3.163008 1.836992 -2.5 2.5 
C -1.836992 3.163008 -0.937635 3.535534 0 3.535534 
z
" id="m7188894d31" style="stroke:#4878d0;"/>
    </defs>
    <g clip-path="url(#p733d1f1400)">
     <use style="fill:#4878d0;stroke:#4878d0;" x="131.382437" xlink:href="#m7188894d31" y="122.365329"/>
     <use style="fill:#4878d0;stroke:#4878d0;" x="102.224437" xlink:href="#m7188894d31" y="143.520827"/>
     <use style="fill:#4878d0;stroke:#4878d0;" x="175.119437" xlink:href="#m7188894d31" y="131.293338"/>
     <use style="fill:#4878d0;stroke:#4878d0;" x="116.803437" xlink:href="#m7188894d31" y="107.42062"/>
     <use style="fill:#4878d0;stroke:#4878d0;" x="145.961437" xlink:href="#m7188894d31" y="116.736802"/>
     <use style="fill:#4878d0;stroke:#4878d0;" x="189.698437" xlink:href="#m7188894d31" y="85.100599"/>
     <use style="fill:#4878d0;stroke:#4878d0;" x="73.066437" xlink:href="#m7188894d31" y="137.8923"/>
     <use style="fill:#4878d0;stroke:#4878d0;" x="43.908437" xlink:href="#m7188894d31" y="195.730267"/>
     <use style="fill:#4878d0;stroke:#4878d0;" x="160.540437" xlink:href="#m7188894d31" y="68.020931"/>
     <use style="fill:#4878d0;stroke:#4878d0;" x="87.645437" xlink:href="#m7188894d31" y="184.861387"/>
     <use style="fill:#4878d0;stroke:#4878d0;" x="58.487437" xlink:href="#m7188894d31" y="168.169894"/>
    </g>
   </g>
   <g id="line2d_12">
    <path clip-path="url(#p733d1f1400)" d="M 43.908437 181.358997 
L 45.381064 180.378581 
L 46.85369 179.398164 
L 48.326316 178.417748 
L 49.798943 177.437332 
L 51.271569 176.456915 
L 52.744195 175.476499 
L 54.216821 174.496083 
L 55.689448 173.515667 
L 57.162074 172.53525 
L 58.6347 171.554834 
L 60.107326 170.574418 
L 61.579953 169.594001 
L 63.052579 168.613585 
L 64.525205 167.633169 
L 65.997831 166.652752 
L 67.470458 165.672336 
L 68.943084 164.69192 
L 70.41571 163.711504 
L 71.888336 162.731087 
L 73.360963 161.750671 
L 74.833589 160.770255 
L 76.306215 159.789838 
L 77.778842 158.809422 
L 79.251468 157.829006 
L 80.724094 156.84859 
L 82.19672 155.868173 
L 83.669347 154.887757 
L 85.141973 153.907341 
L 86.614599 152.926924 
L 88.087225 151.946508 
L 89.559852 150.966092 
L 91.032478 149.985676 
L 92.505104 149.005259 
L 93.97773 148.024843 
L 95.450357 147.044427 
L 96.922983 146.06401 
L 98.395609 145.083594 
L 99.868235 144.103178 
L 101.340862 143.122762 
L 102.813488 142.142345 
L 104.286114 141.161929 
L 105.758741 140.181513 
L 107.231367 139.201096 
L 108.703993 138.22068 
L 110.176619 137.240264 
L 111.649246 136.259847 
L 113.121872 135.279431 
L 114.594498 134.299015 
L 116.067124 133.318599 
L 117.539751 132.338182 
L 119.012377 131.357766 
L 120.485003 130.37735 
L 121.957629 129.396933 
L 123.430256 128.416517 
L 124.902882 127.436101 
L 126.375508 126.455685 
L 127.848134 125.475268 
L 129.320761 124.494852 
L 130.793387 123.514436 
L 132.266013 122.534019 
L 133.73864 121.553603 
L 135.211266 120.573187 
L 136.683892 119.592771 
L 138.156518 118.612354 
L 139.629145 117.631938 
L 141.101771 116.651522 
L 142.574397 115.671105 
L 144.047023 114.690689 
L 145.51965 113.710273 
L 146.992276 112.729857 
L 148.464902 111.74944 
L 149.937528 110.769024 
L 151.410155 109.788608 
L 152.882781 108.808191 
L 154.355407 107.827775 
L 155.828033 106.847359 
L 157.30066 105.866942 
L 158.773286 104.886526 
L 160.245912 103.90611 
L 161.718539 102.925694 
L 163.191165 101.945277 
L 164.663791 100.964861 
L 166.136417 99.984445 
L 167.609044 99.004028 
L 169.08167 98.023612 
L 170.554296 97.043196 
L 172.026922 96.06278 
L 173.499549 95.082363 
L 174.972175 94.101947 
L 176.444801 93.121531 
L 177.917427 92.141114 
L 179.390054 91.160698 
L 180.86268 90.180282 
L 182.335306 89.199866 
L 183.807932 88.219449 
L 185.280559 87.239033 
L 186.753185 86.258617 
L 188.225811 85.2782 
L 189.698437 84.297784 
" style="fill:none;stroke:#4878d0;stroke-linecap:round;stroke-width:2.25;"/>
   </g>
   <g id="patch_3">
    <path d="M 43.908437 227.599375 
L 43.908437 21.789375 
" style="fill:none;stroke:#262626;stroke-linecap:square;stroke-linejoin:miter;stroke-width:1.25;"/>
   </g>
   <g id="patch_4">
    <path d="M 43.908437 227.599375 
L 262.593437 227.599375 
" style="fill:none;stroke:#262626;stroke-linecap:square;stroke-linejoin:miter;stroke-width:1.25;"/>
   </g>
   <g id="text_7">
    <!-- pearson: 0.81642 -->
    <g style="fill:#262626;" transform="translate(54.842687 40.704875)scale(0.12 -0.12)">
     <defs>
      <path d="M 422 -1272 
L 422 3319 
L 934 3319 
L 934 2888 
Q 1116 3141 1344 3267 
Q 1572 3394 1897 3394 
Q 2322 3394 2647 3175 
Q 2972 2956 3137 2557 
Q 3303 2159 3303 1684 
Q 3303 1175 3120 767 
Q 2938 359 2589 142 
Q 2241 -75 1856 -75 
Q 1575 -75 1351 44 
Q 1128 163 984 344 
L 984 -1272 
L 422 -1272 
z
M 931 1641 
Q 931 1000 1190 694 
Q 1450 388 1819 388 
Q 2194 388 2461 705 
Q 2728 1022 2728 1688 
Q 2728 2322 2467 2637 
Q 2206 2953 1844 2953 
Q 1484 2953 1207 2617 
Q 931 2281 931 1641 
z
" id="ArialMT-70" transform="scale(0.015625)"/>
      <path d="M 2694 1069 
L 3275 997 
Q 3138 488 2766 206 
Q 2394 -75 1816 -75 
Q 1088 -75 661 373 
Q 234 822 234 1631 
Q 234 2469 665 2931 
Q 1097 3394 1784 3394 
Q 2450 3394 2872 2941 
Q 3294 2488 3294 1666 
Q 3294 1616 3291 1516 
L 816 1516 
Q 847 969 1125 678 
Q 1403 388 1819 388 
Q 2128 388 2347 550 
Q 2566 713 2694 1069 
z
M 847 1978 
L 2700 1978 
Q 2663 2397 2488 2606 
Q 2219 2931 1791 2931 
Q 1403 2931 1139 2672 
Q 875 2413 847 1978 
z
" id="ArialMT-65" transform="scale(0.015625)"/>
      <path d="M 2588 409 
Q 2275 144 1986 34 
Q 1697 -75 1366 -75 
Q 819 -75 525 192 
Q 231 459 231 875 
Q 231 1119 342 1320 
Q 453 1522 633 1644 
Q 813 1766 1038 1828 
Q 1203 1872 1538 1913 
Q 2219 1994 2541 2106 
Q 2544 2222 2544 2253 
Q 2544 2597 2384 2738 
Q 2169 2928 1744 2928 
Q 1347 2928 1158 2789 
Q 969 2650 878 2297 
L 328 2372 
Q 403 2725 575 2942 
Q 747 3159 1072 3276 
Q 1397 3394 1825 3394 
Q 2250 3394 2515 3294 
Q 2781 3194 2906 3042 
Q 3031 2891 3081 2659 
Q 3109 2516 3109 2141 
L 3109 1391 
Q 3109 606 3145 398 
Q 3181 191 3288 0 
L 2700 0 
Q 2613 175 2588 409 
z
M 2541 1666 
Q 2234 1541 1622 1453 
Q 1275 1403 1131 1340 
Q 988 1278 909 1158 
Q 831 1038 831 891 
Q 831 666 1001 516 
Q 1172 366 1500 366 
Q 1825 366 2078 508 
Q 2331 650 2450 897 
Q 2541 1088 2541 1459 
L 2541 1666 
z
" id="ArialMT-61" transform="scale(0.015625)"/>
      <path d="M 416 0 
L 416 3319 
L 922 3319 
L 922 2816 
Q 1116 3169 1280 3281 
Q 1444 3394 1641 3394 
Q 1925 3394 2219 3213 
L 2025 2691 
Q 1819 2813 1613 2813 
Q 1428 2813 1281 2702 
Q 1134 2591 1072 2394 
Q 978 2094 978 1738 
L 978 0 
L 416 0 
z
" id="ArialMT-72" transform="scale(0.015625)"/>
      <path d="M 197 991 
L 753 1078 
Q 800 744 1014 566 
Q 1228 388 1613 388 
Q 2000 388 2187 545 
Q 2375 703 2375 916 
Q 2375 1106 2209 1216 
Q 2094 1291 1634 1406 
Q 1016 1563 777 1677 
Q 538 1791 414 1992 
Q 291 2194 291 2438 
Q 291 2659 392 2848 
Q 494 3038 669 3163 
Q 800 3259 1026 3326 
Q 1253 3394 1513 3394 
Q 1903 3394 2198 3281 
Q 2494 3169 2634 2976 
Q 2775 2784 2828 2463 
L 2278 2388 
Q 2241 2644 2061 2787 
Q 1881 2931 1553 2931 
Q 1166 2931 1000 2803 
Q 834 2675 834 2503 
Q 834 2394 903 2306 
Q 972 2216 1119 2156 
Q 1203 2125 1616 2013 
Q 2213 1853 2448 1751 
Q 2684 1650 2818 1456 
Q 2953 1263 2953 975 
Q 2953 694 2789 445 
Q 2625 197 2315 61 
Q 2006 -75 1616 -75 
Q 969 -75 630 194 
Q 291 463 197 991 
z
" id="ArialMT-73" transform="scale(0.015625)"/>
      <path d="M 213 1659 
Q 213 2581 725 3025 
Q 1153 3394 1769 3394 
Q 2453 3394 2887 2945 
Q 3322 2497 3322 1706 
Q 3322 1066 3130 698 
Q 2938 331 2570 128 
Q 2203 -75 1769 -75 
Q 1072 -75 642 372 
Q 213 819 213 1659 
z
M 791 1659 
Q 791 1022 1069 705 
Q 1347 388 1769 388 
Q 2188 388 2466 706 
Q 2744 1025 2744 1678 
Q 2744 2294 2464 2611 
Q 2184 2928 1769 2928 
Q 1347 2928 1069 2612 
Q 791 2297 791 1659 
z
" id="ArialMT-6f" transform="scale(0.015625)"/>
      <path d="M 422 0 
L 422 3319 
L 928 3319 
L 928 2847 
Q 1294 3394 1984 3394 
Q 2284 3394 2536 3286 
Q 2788 3178 2913 3003 
Q 3038 2828 3088 2588 
Q 3119 2431 3119 2041 
L 3119 0 
L 2556 0 
L 2556 2019 
Q 2556 2363 2490 2533 
Q 2425 2703 2258 2804 
Q 2091 2906 1866 2906 
Q 1506 2906 1245 2678 
Q 984 2450 984 1813 
L 984 0 
L 422 0 
z
" id="ArialMT-6e" transform="scale(0.015625)"/>
      <path d="M 578 2678 
L 578 3319 
L 1219 3319 
L 1219 2678 
L 578 2678 
z
M 578 0 
L 578 641 
L 1219 641 
L 1219 0 
L 578 0 
z
" id="ArialMT-3a" transform="scale(0.015625)"/>
      <path id="ArialMT-20" transform="scale(0.015625)"/>
      <path d="M 581 0 
L 581 641 
L 1222 641 
L 1222 0 
L 581 0 
z
" id="ArialMT-2e" transform="scale(0.015625)"/>
     </defs>
     <use xlink:href="#ArialMT-70"/>
     <use x="55.615234" xlink:href="#ArialMT-65"/>
     <use x="111.230469" xlink:href="#ArialMT-61"/>
     <use x="166.845703" xlink:href="#ArialMT-72"/>
     <use x="200.146484" xlink:href="#ArialMT-73"/>
     <use x="250.146484" xlink:href="#ArialMT-6f"/>
     <use x="305.761719" xlink:href="#ArialMT-6e"/>
     <use x="361.376953" xlink:href="#ArialMT-3a"/>
     <use x="389.160156" xlink:href="#ArialMT-20"/>
     <use x="416.943359" xlink:href="#ArialMT-30"/>
     <use x="472.558594" xlink:href="#ArialMT-2e"/>
     <use x="500.341797" xlink:href="#ArialMT-38"/>
     <use x="555.957031" xlink:href="#ArialMT-31"/>
     <use x="611.572266" xlink:href="#ArialMT-36"/>
     <use x="667.1875" xlink:href="#ArialMT-34"/>
     <use x="722.802734" xlink:href="#ArialMT-32"/>
    </g>
    <!-- spearman: 0.81818 -->
    <g style="fill:#262626;" transform="translate(54.842687 53.439875)scale(0.12 -0.12)">
     <defs>
      <path d="M 422 0 
L 422 3319 
L 925 3319 
L 925 2853 
Q 1081 3097 1340 3245 
Q 1600 3394 1931 3394 
Q 2300 3394 2536 3241 
Q 2772 3088 2869 2813 
Q 3263 3394 3894 3394 
Q 4388 3394 4653 3120 
Q 4919 2847 4919 2278 
L 4919 0 
L 4359 0 
L 4359 2091 
Q 4359 2428 4304 2576 
Q 4250 2725 4106 2815 
Q 3963 2906 3769 2906 
Q 3419 2906 3187 2673 
Q 2956 2441 2956 1928 
L 2956 0 
L 2394 0 
L 2394 2156 
Q 2394 2531 2256 2718 
Q 2119 2906 1806 2906 
Q 1569 2906 1367 2781 
Q 1166 2656 1075 2415 
Q 984 2175 984 1722 
L 984 0 
L 422 0 
z
" id="ArialMT-6d" transform="scale(0.015625)"/>
     </defs>
     <use xlink:href="#ArialMT-73"/>
     <use x="50" xlink:href="#ArialMT-70"/>
     <use x="105.615234" xlink:href="#ArialMT-65"/>
     <use x="161.230469" xlink:href="#ArialMT-61"/>
     <use x="216.845703" xlink:href="#ArialMT-72"/>
     <use x="250.146484" xlink:href="#ArialMT-6d"/>
     <use x="333.447266" xlink:href="#ArialMT-61"/>
     <use x="389.0625" xlink:href="#ArialMT-6e"/>
     <use x="444.677734" xlink:href="#ArialMT-3a"/>
     <use x="472.460938" xlink:href="#ArialMT-20"/>
     <use x="500.244141" xlink:href="#ArialMT-30"/>
     <use x="555.859375" xlink:href="#ArialMT-2e"/>
     <use x="583.642578" xlink:href="#ArialMT-38"/>
     <use x="639.257812" xlink:href="#ArialMT-31"/>
     <use x="694.873047" xlink:href="#ArialMT-38"/>
     <use x="750.488281" xlink:href="#ArialMT-31"/>
     <use x="806.103516" xlink:href="#ArialMT-38"/>
    </g>
    <!-- kendall: 0.63636 -->
    <g style="fill:#262626;" transform="translate(54.842687 66.132125)scale(0.12 -0.12)">
     <defs>
      <path d="M 425 0 
L 425 4581 
L 988 4581 
L 988 1969 
L 2319 3319 
L 3047 3319 
L 1778 2088 
L 3175 0 
L 2481 0 
L 1384 1697 
L 988 1316 
L 988 0 
L 425 0 
z
" id="ArialMT-6b" transform="scale(0.015625)"/>
      <path d="M 2575 0 
L 2575 419 
Q 2259 -75 1647 -75 
Q 1250 -75 917 144 
Q 584 363 401 755 
Q 219 1147 219 1656 
Q 219 2153 384 2558 
Q 550 2963 881 3178 
Q 1213 3394 1622 3394 
Q 1922 3394 2156 3267 
Q 2391 3141 2538 2938 
L 2538 4581 
L 3097 4581 
L 3097 0 
L 2575 0 
z
M 797 1656 
Q 797 1019 1065 703 
Q 1334 388 1700 388 
Q 2069 388 2326 689 
Q 2584 991 2584 1609 
Q 2584 2291 2321 2609 
Q 2059 2928 1675 2928 
Q 1300 2928 1048 2622 
Q 797 2316 797 1656 
z
" id="ArialMT-64" transform="scale(0.015625)"/>
      <path d="M 409 0 
L 409 4581 
L 972 4581 
L 972 0 
L 409 0 
z
" id="ArialMT-6c" transform="scale(0.015625)"/>
      <path d="M 269 1209 
L 831 1284 
Q 928 806 1161 595 
Q 1394 384 1728 384 
Q 2125 384 2398 659 
Q 2672 934 2672 1341 
Q 2672 1728 2419 1979 
Q 2166 2231 1775 2231 
Q 1616 2231 1378 2169 
L 1441 2663 
Q 1497 2656 1531 2656 
Q 1891 2656 2178 2843 
Q 2466 3031 2466 3422 
Q 2466 3731 2256 3934 
Q 2047 4138 1716 4138 
Q 1388 4138 1169 3931 
Q 950 3725 888 3313 
L 325 3413 
Q 428 3978 793 4289 
Q 1159 4600 1703 4600 
Q 2078 4600 2393 4439 
Q 2709 4278 2876 4000 
Q 3044 3722 3044 3409 
Q 3044 3113 2884 2869 
Q 2725 2625 2413 2481 
Q 2819 2388 3044 2092 
Q 3269 1797 3269 1353 
Q 3269 753 2831 336 
Q 2394 -81 1725 -81 
Q 1122 -81 723 278 
Q 325 638 269 1209 
z
" id="ArialMT-33" transform="scale(0.015625)"/>
     </defs>
     <use xlink:href="#ArialMT-6b"/>
     <use x="50" xlink:href="#ArialMT-65"/>
     <use x="105.615234" xlink:href="#ArialMT-6e"/>
     <use x="161.230469" xlink:href="#ArialMT-64"/>
     <use x="216.845703" xlink:href="#ArialMT-61"/>
     <use x="272.460938" xlink:href="#ArialMT-6c"/>
     <use x="294.677734" xlink:href="#ArialMT-6c"/>
     <use x="316.894531" xlink:href="#ArialMT-3a"/>
     <use x="344.677734" xlink:href="#ArialMT-20"/>
     <use x="372.460938" xlink:href="#ArialMT-30"/>
     <use x="428.076172" xlink:href="#ArialMT-2e"/>
     <use x="455.859375" xlink:href="#ArialMT-36"/>
     <use x="511.474609" xlink:href="#ArialMT-33"/>
     <use x="567.089844" xlink:href="#ArialMT-36"/>
     <use x="622.705078" xlink:href="#ArialMT-33"/>
     <use x="678.320312" xlink:href="#ArialMT-36"/>
    </g>
    <!-- xi: 0.27500 -->
    <g style="fill:#262626;" transform="translate(54.842687 78.824375)scale(0.12 -0.12)">
     <defs>
      <path d="M 47 0 
L 1259 1725 
L 138 3319 
L 841 3319 
L 1350 2541 
Q 1494 2319 1581 2169 
Q 1719 2375 1834 2534 
L 2394 3319 
L 3066 3319 
L 1919 1756 
L 3153 0 
L 2463 0 
L 1781 1031 
L 1600 1309 
L 728 0 
L 47 0 
z
" id="ArialMT-78" transform="scale(0.015625)"/>
      <path d="M 425 3934 
L 425 4581 
L 988 4581 
L 988 3934 
L 425 3934 
z
M 425 0 
L 425 3319 
L 988 3319 
L 988 0 
L 425 0 
z
" id="ArialMT-69" transform="scale(0.015625)"/>
      <path d="M 303 3981 
L 303 4522 
L 3269 4522 
L 3269 4084 
Q 2831 3619 2401 2847 
Q 1972 2075 1738 1259 
Q 1569 684 1522 0 
L 944 0 
Q 953 541 1156 1306 
Q 1359 2072 1739 2783 
Q 2119 3494 2547 3981 
L 303 3981 
z
" id="ArialMT-37" transform="scale(0.015625)"/>
      <path d="M 266 1200 
L 856 1250 
Q 922 819 1161 601 
Q 1400 384 1738 384 
Q 2144 384 2425 690 
Q 2706 997 2706 1503 
Q 2706 1984 2436 2262 
Q 2166 2541 1728 2541 
Q 1456 2541 1237 2417 
Q 1019 2294 894 2097 
L 366 2166 
L 809 4519 
L 3088 4519 
L 3088 3981 
L 1259 3981 
L 1013 2750 
Q 1425 3038 1878 3038 
Q 2478 3038 2890 2622 
Q 3303 2206 3303 1553 
Q 3303 931 2941 478 
Q 2500 -78 1738 -78 
Q 1113 -78 717 272 
Q 322 622 266 1200 
z
" id="ArialMT-35" transform="scale(0.015625)"/>
     </defs>
     <use xlink:href="#ArialMT-78"/>
     <use x="50" xlink:href="#ArialMT-69"/>
     <use x="72.216797" xlink:href="#ArialMT-3a"/>
     <use x="100" xlink:href="#ArialMT-20"/>
     <use x="127.783203" xlink:href="#ArialMT-30"/>
     <use x="183.398438" xlink:href="#ArialMT-2e"/>
     <use x="211.181641" xlink:href="#ArialMT-32"/>
     <use x="266.796875" xlink:href="#ArialMT-37"/>
     <use x="322.412109" xlink:href="#ArialMT-35"/>
     <use x="378.027344" xlink:href="#ArialMT-30"/>
     <use x="433.642578" xlink:href="#ArialMT-30"/>
    </g>
   </g>
   <g id="text_8">
    <!-- dataset = I -->
    <g style="fill:#262626;" transform="translate(125.065937 15.789375)scale(0.12 -0.12)">
     <defs>
      <path d="M 1650 503 
L 1731 6 
Q 1494 -44 1306 -44 
Q 1000 -44 831 53 
Q 663 150 594 308 
Q 525 466 525 972 
L 525 2881 
L 113 2881 
L 113 3319 
L 525 3319 
L 525 4141 
L 1084 4478 
L 1084 3319 
L 1650 3319 
L 1650 2881 
L 1084 2881 
L 1084 941 
Q 1084 700 1114 631 
Q 1144 563 1211 522 
Q 1278 481 1403 481 
Q 1497 481 1650 503 
z
" id="ArialMT-74" transform="scale(0.015625)"/>
      <path d="M 3381 2694 
L 356 2694 
L 356 3219 
L 3381 3219 
L 3381 2694 
z
M 3381 1303 
L 356 1303 
L 356 1828 
L 3381 1828 
L 3381 1303 
z
" id="ArialMT-3d" transform="scale(0.015625)"/>
      <path d="M 597 0 
L 597 4581 
L 1203 4581 
L 1203 0 
L 597 0 
z
" id="ArialMT-49" transform="scale(0.015625)"/>
     </defs>
     <use xlink:href="#ArialMT-64"/>
     <use x="55.615234" xlink:href="#ArialMT-61"/>
     <use x="111.230469" xlink:href="#ArialMT-74"/>
     <use x="139.013672" xlink:href="#ArialMT-61"/>
     <use x="194.628906" xlink:href="#ArialMT-73"/>
     <use x="244.628906" xlink:href="#ArialMT-65"/>
     <use x="300.244141" xlink:href="#ArialMT-74"/>
     <use x="328.027344" xlink:href="#ArialMT-20"/>
     <use x="355.810547" xlink:href="#ArialMT-3d"/>
     <use x="414.208984" xlink:href="#ArialMT-20"/>
     <use x="441.992188" xlink:href="#ArialMT-49"/>
    </g>
   </g>
  </g>
  <g id="axes_2">
   <g id="patch_5">
    <path d="M 281.553437 227.599375 
L 500.238437 227.599375 
L 500.238437 21.789375 
L 281.553437 21.789375 
z
" style="fill:#ffffff;"/>
   </g>
   <g id="matplotlib.axis_3">
    <g id="xtick_7">
     <g id="line2d_13">
      <g>
       <use style="fill:#262626;stroke:#262626;stroke-width:1.25;" x="296.132437" xlink:href="#m4992048040" y="227.599375"/>
      </g>
     </g>
    </g>
    <g id="xtick_8">
     <g id="line2d_14">
      <g>
       <use style="fill:#262626;stroke:#262626;stroke-width:1.25;" x="332.579937" xlink:href="#m4992048040" y="227.599375"/>
      </g>
     </g>
    </g>
    <g id="xtick_9">
     <g id="line2d_15">
      <g>
       <use style="fill:#262626;stroke:#262626;stroke-width:1.25;" x="369.027437" xlink:href="#m4992048040" y="227.599375"/>
      </g>
     </g>
    </g>
    <g id="xtick_10">
     <g id="line2d_16">
      <g>
       <use style="fill:#262626;stroke:#262626;stroke-width:1.25;" x="405.474937" xlink:href="#m4992048040" y="227.599375"/>
      </g>
     </g>
    </g>
    <g id="xtick_11">
     <g id="line2d_17">
      <g>
       <use style="fill:#262626;stroke:#262626;stroke-width:1.25;" x="441.922437" xlink:href="#m4992048040" y="227.599375"/>
      </g>
     </g>
    </g>
    <g id="xtick_12">
     <g id="line2d_18">
      <g>
       <use style="fill:#262626;stroke:#262626;stroke-width:1.25;" x="478.369937" xlink:href="#m4992048040" y="227.599375"/>
      </g>
     </g>
    </g>
   </g>
   <g id="matplotlib.axis_4">
    <g id="ytick_6">
     <g id="line2d_19">
      <g>
       <use style="fill:#262626;stroke:#262626;stroke-width:1.25;" x="281.553437" xlink:href="#m954537abf5" y="200.776533"/>
      </g>
     </g>
    </g>
    <g id="ytick_7">
     <g id="line2d_20">
      <g>
       <use style="fill:#262626;stroke:#262626;stroke-width:1.25;" x="281.553437" xlink:href="#m954537abf5" y="161.959105"/>
      </g>
     </g>
    </g>
    <g id="ytick_8">
     <g id="line2d_21">
      <g>
       <use style="fill:#262626;stroke:#262626;stroke-width:1.25;" x="281.553437" xlink:href="#m954537abf5" y="123.141678"/>
      </g>
     </g>
    </g>
    <g id="ytick_9">
     <g id="line2d_22">
      <g>
       <use style="fill:#262626;stroke:#262626;stroke-width:1.25;" x="281.553437" xlink:href="#m954537abf5" y="84.324251"/>
      </g>
     </g>
    </g>
    <g id="ytick_10">
     <g id="line2d_23">
      <g>
       <use style="fill:#262626;stroke:#262626;stroke-width:1.25;" x="281.553437" xlink:href="#m954537abf5" y="45.506823"/>
      </g>
     </g>
    </g>
   </g>
   <g id="PathCollection_2">
    <defs>
     <path d="M 0 3.535534 
C 0.937635 3.535534 1.836992 3.163008 2.5 2.5 
C 3.163008 1.836992 3.535534 0.937635 3.535534 0 
C 3.535534 -0.937635 3.163008 -1.836992 2.5 -2.5 
C 1.836992 -3.163008 0.937635 -3.535534 0 -3.535534 
C -0.937635 -3.535534 -1.836992 -3.163008 -2.5 -2.5 
C -3.163008 -1.836992 -3.535534 -0.937635 -3.535534 0 
C -3.535534 0.937635 -3.163008 1.836992 -2.5 2.5 
C -1.836992 3.163008 -0.937635 3.535534 0 3.535534 
z
" id="m8f8ca9d6f2" style="stroke:#ee854a;"/>
    </defs>
    <g clip-path="url(#p351ba04200)">
     <use style="fill:#ee854a;stroke:#ee854a;" x="369.027437" xlink:href="#m8f8ca9d6f2" y="101.015744"/>
     <use style="fill:#ee854a;stroke:#ee854a;" x="339.869437" xlink:href="#m8f8ca9d6f2" y="120.424458"/>
     <use style="fill:#ee854a;stroke:#ee854a;" x="412.764437" xlink:href="#m8f8ca9d6f2" y="108.77923"/>
     <use style="fill:#ee854a;stroke:#ee854a;" x="354.448437" xlink:href="#m8f8ca9d6f2" y="108.196968"/>
     <use style="fill:#ee854a;stroke:#ee854a;" x="383.606437" xlink:href="#m8f8ca9d6f2" y="98.686699"/>
     <use style="fill:#ee854a;stroke:#ee854a;" x="427.343437" xlink:href="#m8f8ca9d6f2" y="121.200807"/>
     <use style="fill:#ee854a;stroke:#ee854a;" x="310.711437" xlink:href="#m8f8ca9d6f2" y="159.435973"/>
     <use style="fill:#ee854a;stroke:#ee854a;" x="281.553437" xlink:href="#m8f8ca9d6f2" y="218.244375"/>
     <use style="fill:#ee854a;stroke:#ee854a;" x="398.185437" xlink:href="#m8f8ca9d6f2" y="101.209831"/>
     <use style="fill:#ee854a;stroke:#ee854a;" x="325.290437" xlink:href="#m8f8ca9d6f2" y="137.504126"/>
     <use style="fill:#ee854a;stroke:#ee854a;" x="296.132437" xlink:href="#m8f8ca9d6f2" y="186.414085"/>
    </g>
   </g>
   <g id="line2d_24">
    <path clip-path="url(#p351ba04200)" d="M 281.553437 181.350175 
L 283.026064 180.369937 
L 284.49869 179.389699 
L 285.971316 178.409461 
L 287.443943 177.429222 
L 288.916569 176.448984 
L 290.389195 175.468746 
L 291.861821 174.488508 
L 293.334448 173.50827 
L 294.807074 172.528032 
L 296.2797 171.547794 
L 297.752326 170.567556 
L 299.224953 169.587318 
L 300.697579 168.60708 
L 302.170205 167.626842 
L 303.642831 166.646604 
L 305.115458 165.666366 
L 306.588084 164.686128 
L 308.06071 163.70589 
L 309.533336 162.725651 
L 311.005963 161.745413 
L 312.478589 160.765175 
L 313.951215 159.784937 
L 315.423842 158.804699 
L 316.896468 157.824461 
L 318.369094 156.844223 
L 319.84172 155.863985 
L 321.314347 154.883747 
L 322.786973 153.903509 
L 324.259599 152.923271 
L 325.732225 151.943033 
L 327.204852 150.962795 
L 328.677478 149.982557 
L 330.150104 149.002319 
L 331.62273 148.02208 
L 333.095357 147.041842 
L 334.567983 146.061604 
L 336.040609 145.081366 
L 337.513235 144.101128 
L 338.985862 143.12089 
L 340.458488 142.140652 
L 341.931114 141.160414 
L 343.403741 140.180176 
L 344.876367 139.199938 
L 346.348993 138.2197 
L 347.821619 137.239462 
L 349.294246 136.259224 
L 350.766872 135.278986 
L 352.239498 134.298748 
L 353.712124 133.318509 
L 355.184751 132.338271 
L 356.657377 131.358033 
L 358.130003 130.377795 
L 359.602629 129.397557 
L 361.075256 128.417319 
L 362.547882 127.437081 
L 364.020508 126.456843 
L 365.493134 125.476605 
L 366.965761 124.496367 
L 368.438387 123.516129 
L 369.911013 122.535891 
L 371.38364 121.555653 
L 372.856266 120.575415 
L 374.328892 119.595177 
L 375.801518 118.614939 
L 377.274145 117.6347 
L 378.746771 116.654462 
L 380.219397 115.674224 
L 381.692023 114.693986 
L 383.16465 113.713748 
L 384.637276 112.73351 
L 386.109902 111.753272 
L 387.582528 110.773034 
L 389.055155 109.792796 
L 390.527781 108.812558 
L 392.000407 107.83232 
L 393.473033 106.852082 
L 394.94566 105.871844 
L 396.418286 104.891606 
L 397.890912 103.911368 
L 399.363539 102.931129 
L 400.836165 101.950891 
L 402.308791 100.970653 
L 403.781417 99.990415 
L 405.254044 99.010177 
L 406.72667 98.029939 
L 408.199296 97.049701 
L 409.671922 96.069463 
L 411.144549 95.089225 
L 412.617175 94.108987 
L 414.089801 93.128749 
L 415.562427 92.148511 
L 417.035054 91.168273 
L 418.50768 90.188035 
L 419.980306 89.207797 
L 421.452932 88.227558 
L 422.925559 87.24732 
L 424.398185 86.267082 
L 425.870811 85.286844 
L 427.343437 84.306606 
" style="fill:none;stroke:#ee854a;stroke-linecap:round;stroke-width:2.25;"/>
   </g>
   <g id="patch_6">
    <path d="M 281.553437 227.599375 
L 281.553437 21.789375 
" style="fill:none;stroke:#262626;stroke-linecap:square;stroke-linejoin:miter;stroke-width:1.25;"/>
   </g>
   <g id="patch_7">
    <path d="M 281.553437 227.599375 
L 500.238437 227.599375 
" style="fill:none;stroke:#262626;stroke-linecap:square;stroke-linejoin:miter;stroke-width:1.25;"/>
   </g>
   <g id="text_9">
    <!-- pearson: 0.81624 -->
    <g style="fill:#262626;" transform="translate(292.487687 40.704875)scale(0.12 -0.12)">
     <use xlink:href="#ArialMT-70"/>
     <use x="55.615234" xlink:href="#ArialMT-65"/>
     <use x="111.230469" xlink:href="#ArialMT-61"/>
     <use x="166.845703" xlink:href="#ArialMT-72"/>
     <use x="200.146484" xlink:href="#ArialMT-73"/>
     <use x="250.146484" xlink:href="#ArialMT-6f"/>
     <use x="305.761719" xlink:href="#ArialMT-6e"/>
     <use x="361.376953" xlink:href="#ArialMT-3a"/>
     <use x="389.160156" xlink:href="#ArialMT-20"/>
     <use x="416.943359" xlink:href="#ArialMT-30"/>
     <use x="472.558594" xlink:href="#ArialMT-2e"/>
     <use x="500.341797" xlink:href="#ArialMT-38"/>
     <use x="555.957031" xlink:href="#ArialMT-31"/>
     <use x="611.572266" xlink:href="#ArialMT-36"/>
     <use x="667.1875" xlink:href="#ArialMT-32"/>
     <use x="722.802734" xlink:href="#ArialMT-34"/>
    </g>
    <!-- spearman: 0.69091 -->
    <g style="fill:#262626;" transform="translate(292.487687 53.439875)scale(0.12 -0.12)">
     <defs>
      <path d="M 350 1059 
L 891 1109 
Q 959 728 1153 556 
Q 1347 384 1650 384 
Q 1909 384 2104 503 
Q 2300 622 2425 820 
Q 2550 1019 2634 1356 
Q 2719 1694 2719 2044 
Q 2719 2081 2716 2156 
Q 2547 1888 2255 1720 
Q 1963 1553 1622 1553 
Q 1053 1553 659 1965 
Q 266 2378 266 3053 
Q 266 3750 677 4175 
Q 1088 4600 1706 4600 
Q 2153 4600 2523 4359 
Q 2894 4119 3086 3673 
Q 3278 3228 3278 2384 
Q 3278 1506 3087 986 
Q 2897 466 2520 194 
Q 2144 -78 1638 -78 
Q 1100 -78 759 220 
Q 419 519 350 1059 
z
M 2653 3081 
Q 2653 3566 2395 3850 
Q 2138 4134 1775 4134 
Q 1400 4134 1122 3828 
Q 844 3522 844 3034 
Q 844 2597 1108 2323 
Q 1372 2050 1759 2050 
Q 2150 2050 2401 2323 
Q 2653 2597 2653 3081 
z
" id="ArialMT-39" transform="scale(0.015625)"/>
     </defs>
     <use xlink:href="#ArialMT-73"/>
     <use x="50" xlink:href="#ArialMT-70"/>
     <use x="105.615234" xlink:href="#ArialMT-65"/>
     <use x="161.230469" xlink:href="#ArialMT-61"/>
     <use x="216.845703" xlink:href="#ArialMT-72"/>
     <use x="250.146484" xlink:href="#ArialMT-6d"/>
     <use x="333.447266" xlink:href="#ArialMT-61"/>
     <use x="389.0625" xlink:href="#ArialMT-6e"/>
     <use x="444.677734" xlink:href="#ArialMT-3a"/>
     <use x="472.460938" xlink:href="#ArialMT-20"/>
     <use x="500.244141" xlink:href="#ArialMT-30"/>
     <use x="555.859375" xlink:href="#ArialMT-2e"/>
     <use x="583.642578" xlink:href="#ArialMT-36"/>
     <use x="639.257812" xlink:href="#ArialMT-39"/>
     <use x="694.873047" xlink:href="#ArialMT-30"/>
     <use x="750.488281" xlink:href="#ArialMT-39"/>
     <use x="806.103516" xlink:href="#ArialMT-31"/>
    </g>
    <!-- kendall: 0.56364 -->
    <g style="fill:#262626;" transform="translate(292.487687 66.132125)scale(0.12 -0.12)">
     <use xlink:href="#ArialMT-6b"/>
     <use x="50" xlink:href="#ArialMT-65"/>
     <use x="105.615234" xlink:href="#ArialMT-6e"/>
     <use x="161.230469" xlink:href="#ArialMT-64"/>
     <use x="216.845703" xlink:href="#ArialMT-61"/>
     <use x="272.460938" xlink:href="#ArialMT-6c"/>
     <use x="294.677734" xlink:href="#ArialMT-6c"/>
     <use x="316.894531" xlink:href="#ArialMT-3a"/>
     <use x="344.677734" xlink:href="#ArialMT-20"/>
     <use x="372.460938" xlink:href="#ArialMT-30"/>
     <use x="428.076172" xlink:href="#ArialMT-2e"/>
     <use x="455.859375" xlink:href="#ArialMT-35"/>
     <use x="511.474609" xlink:href="#ArialMT-36"/>
     <use x="567.089844" xlink:href="#ArialMT-33"/>
     <use x="622.705078" xlink:href="#ArialMT-36"/>
     <use x="678.320312" xlink:href="#ArialMT-34"/>
    </g>
    <!-- xi: 0.60000 -->
    <g style="fill:#262626;" transform="translate(292.487687 78.824375)scale(0.12 -0.12)">
     <use xlink:href="#ArialMT-78"/>
     <use x="50" xlink:href="#ArialMT-69"/>
     <use x="72.216797" xlink:href="#ArialMT-3a"/>
     <use x="100" xlink:href="#ArialMT-20"/>
     <use x="127.783203" xlink:href="#ArialMT-30"/>
     <use x="183.398438" xlink:href="#ArialMT-2e"/>
     <use x="211.181641" xlink:href="#ArialMT-36"/>
     <use x="266.796875" xlink:href="#ArialMT-30"/>
     <use x="322.412109" xlink:href="#ArialMT-30"/>
     <use x="378.027344" xlink:href="#ArialMT-30"/>
     <use x="433.642578" xlink:href="#ArialMT-30"/>
    </g>
   </g>
   <g id="text_10">
    <!-- dataset = II -->
    <g style="fill:#262626;" transform="translate(361.044062 15.789375)scale(0.12 -0.12)">
     <use xlink:href="#ArialMT-64"/>
     <use x="55.615234" xlink:href="#ArialMT-61"/>
     <use x="111.230469" xlink:href="#ArialMT-74"/>
     <use x="139.013672" xlink:href="#ArialMT-61"/>
     <use x="194.628906" xlink:href="#ArialMT-73"/>
     <use x="244.628906" xlink:href="#ArialMT-65"/>
     <use x="300.244141" xlink:href="#ArialMT-74"/>
     <use x="328.027344" xlink:href="#ArialMT-20"/>
     <use x="355.810547" xlink:href="#ArialMT-3d"/>
     <use x="414.208984" xlink:href="#ArialMT-20"/>
     <use x="441.992188" xlink:href="#ArialMT-49"/>
     <use x="469.775391" xlink:href="#ArialMT-49"/>
    </g>
   </g>
  </g>
  <g id="axes_3">
   <g id="patch_8">
    <path d="M 43.908437 466.369375 
L 262.593437 466.369375 
L 262.593437 260.559375 
L 43.908437 260.559375 
z
" style="fill:#ffffff;"/>
   </g>
   <g id="matplotlib.axis_5">
    <g id="xtick_13">
     <g id="line2d_25">
      <g>
       <use style="fill:#262626;stroke:#262626;stroke-width:1.25;" x="58.487437" xlink:href="#m4992048040" y="466.369375"/>
      </g>
     </g>
     <g id="text_11">
      <!-- 5.0 -->
      <g style="fill:#262626;" transform="translate(50.842437 483.742969)scale(0.11 -0.11)">
       <use xlink:href="#ArialMT-35"/>
       <use x="55.615234" xlink:href="#ArialMT-2e"/>
       <use x="83.398438" xlink:href="#ArialMT-30"/>
      </g>
     </g>
    </g>
    <g id="xtick_14">
     <g id="line2d_26">
      <g>
       <use style="fill:#262626;stroke:#262626;stroke-width:1.25;" x="94.934937" xlink:href="#m4992048040" y="466.369375"/>
      </g>
     </g>
     <g id="text_12">
      <!-- 7.5 -->
      <g style="fill:#262626;" transform="translate(87.289937 483.742969)scale(0.11 -0.11)">
       <use xlink:href="#ArialMT-37"/>
       <use x="55.615234" xlink:href="#ArialMT-2e"/>
       <use x="83.398438" xlink:href="#ArialMT-35"/>
      </g>
     </g>
    </g>
    <g id="xtick_15">
     <g id="line2d_27">
      <g>
       <use style="fill:#262626;stroke:#262626;stroke-width:1.25;" x="131.382437" xlink:href="#m4992048040" y="466.369375"/>
      </g>
     </g>
     <g id="text_13">
      <!-- 10.0 -->
      <g style="fill:#262626;" transform="translate(120.678922 483.742969)scale(0.11 -0.11)">
       <use xlink:href="#ArialMT-31"/>
       <use x="55.615234" xlink:href="#ArialMT-30"/>
       <use x="111.230469" xlink:href="#ArialMT-2e"/>
       <use x="139.013672" xlink:href="#ArialMT-30"/>
      </g>
     </g>
    </g>
    <g id="xtick_16">
     <g id="line2d_28">
      <g>
       <use style="fill:#262626;stroke:#262626;stroke-width:1.25;" x="167.829937" xlink:href="#m4992048040" y="466.369375"/>
      </g>
     </g>
     <g id="text_14">
      <!-- 12.5 -->
      <g style="fill:#262626;" transform="translate(157.126422 483.742969)scale(0.11 -0.11)">
       <use xlink:href="#ArialMT-31"/>
       <use x="55.615234" xlink:href="#ArialMT-32"/>
       <use x="111.230469" xlink:href="#ArialMT-2e"/>
       <use x="139.013672" xlink:href="#ArialMT-35"/>
      </g>
     </g>
    </g>
    <g id="xtick_17">
     <g id="line2d_29">
      <g>
       <use style="fill:#262626;stroke:#262626;stroke-width:1.25;" x="204.277437" xlink:href="#m4992048040" y="466.369375"/>
      </g>
     </g>
     <g id="text_15">
      <!-- 15.0 -->
      <g style="fill:#262626;" transform="translate(193.573922 483.742969)scale(0.11 -0.11)">
       <use xlink:href="#ArialMT-31"/>
       <use x="55.615234" xlink:href="#ArialMT-35"/>
       <use x="111.230469" xlink:href="#ArialMT-2e"/>
       <use x="139.013672" xlink:href="#ArialMT-30"/>
      </g>
     </g>
    </g>
    <g id="xtick_18">
     <g id="line2d_30">
      <g>
       <use style="fill:#262626;stroke:#262626;stroke-width:1.25;" x="240.724937" xlink:href="#m4992048040" y="466.369375"/>
      </g>
     </g>
     <g id="text_16">
      <!-- 17.5 -->
      <g style="fill:#262626;" transform="translate(230.021422 483.742969)scale(0.11 -0.11)">
       <use xlink:href="#ArialMT-31"/>
       <use x="55.615234" xlink:href="#ArialMT-37"/>
       <use x="111.230469" xlink:href="#ArialMT-2e"/>
       <use x="139.013672" xlink:href="#ArialMT-35"/>
      </g>
     </g>
    </g>
    <g id="text_17">
     <!-- x -->
     <g style="fill:#262626;" transform="translate(150.250937 498.518594)scale(0.12 -0.12)">
      <use xlink:href="#ArialMT-78"/>
     </g>
    </g>
   </g>
   <g id="matplotlib.axis_6">
    <g id="ytick_11">
     <g id="line2d_31">
      <g>
       <use style="fill:#262626;stroke:#262626;stroke-width:1.25;" x="43.908437" xlink:href="#m954537abf5" y="439.546533"/>
      </g>
     </g>
     <g id="text_18">
      <!-- 4 -->
      <g style="fill:#262626;" transform="translate(28.291406 443.48333)scale(0.11 -0.11)">
       <use xlink:href="#ArialMT-34"/>
      </g>
     </g>
    </g>
    <g id="ytick_12">
     <g id="line2d_32">
      <g>
       <use style="fill:#262626;stroke:#262626;stroke-width:1.25;" x="43.908437" xlink:href="#m954537abf5" y="400.729105"/>
      </g>
     </g>
     <g id="text_19">
      <!-- 6 -->
      <g style="fill:#262626;" transform="translate(28.291406 404.665902)scale(0.11 -0.11)">
       <use xlink:href="#ArialMT-36"/>
      </g>
     </g>
    </g>
    <g id="ytick_13">
     <g id="line2d_33">
      <g>
       <use style="fill:#262626;stroke:#262626;stroke-width:1.25;" x="43.908437" xlink:href="#m954537abf5" y="361.911678"/>
      </g>
     </g>
     <g id="text_20">
      <!-- 8 -->
      <g style="fill:#262626;" transform="translate(28.291406 365.848475)scale(0.11 -0.11)">
       <use xlink:href="#ArialMT-38"/>
      </g>
     </g>
    </g>
    <g id="ytick_14">
     <g id="line2d_34">
      <g>
       <use style="fill:#262626;stroke:#262626;stroke-width:1.25;" x="43.908437" xlink:href="#m954537abf5" y="323.094251"/>
      </g>
     </g>
     <g id="text_21">
      <!-- 10 -->
      <g style="fill:#262626;" transform="translate(22.174375 327.031047)scale(0.11 -0.11)">
       <use xlink:href="#ArialMT-31"/>
       <use x="55.615234" xlink:href="#ArialMT-30"/>
      </g>
     </g>
    </g>
    <g id="ytick_15">
     <g id="line2d_35">
      <g>
       <use style="fill:#262626;stroke:#262626;stroke-width:1.25;" x="43.908437" xlink:href="#m954537abf5" y="284.276823"/>
      </g>
     </g>
     <g id="text_22">
      <!-- 12 -->
      <g style="fill:#262626;" transform="translate(22.174375 288.21362)scale(0.11 -0.11)">
       <use xlink:href="#ArialMT-31"/>
       <use x="55.615234" xlink:href="#ArialMT-32"/>
      </g>
     </g>
    </g>
    <g id="text_23">
     <!-- y -->
     <g style="fill:#262626;" transform="translate(15.64875 366.464375)rotate(-90)scale(0.12 -0.12)">
      <use xlink:href="#ArialMT-79"/>
     </g>
    </g>
   </g>
   <g id="PathCollection_3">
    <defs>
     <path d="M 0 3.535534 
C 0.937635 3.535534 1.836992 3.163008 2.5 2.5 
C 3.163008 1.836992 3.535534 0.937635 3.535534 0 
C 3.535534 -0.937635 3.163008 -1.836992 2.5 -2.5 
C 1.836992 -3.163008 0.937635 -3.535534 0 -3.535534 
C -0.937635 -3.535534 -1.836992 -3.163008 -2.5 -2.5 
C -3.163008 -1.836992 -3.535534 -0.937635 -3.535534 0 
C -3.535534 0.937635 -3.163008 1.836992 -2.5 2.5 
C -1.836992 3.163008 -0.937635 3.535534 0 3.535534 
z
" id="m2f6c97e6c3" style="stroke:#6acc64;"/>
    </defs>
    <g clip-path="url(#p1fc88d1142)">
     <use style="fill:#6acc64;stroke:#6acc64;" x="131.382437" xlink:href="#m2f6c97e6c3" y="372.392383"/>
     <use style="fill:#6acc64;stroke:#6acc64;" x="102.224437" xlink:href="#m2f6c97e6c3" y="385.784396"/>
     <use style="fill:#6acc64;stroke:#6acc64;" x="175.119437" xlink:href="#m2f6c97e6c3" y="269.914375"/>
     <use style="fill:#6acc64;stroke:#6acc64;" x="116.803437" xlink:href="#m2f6c97e6c3" y="379.185433"/>
     <use style="fill:#6acc64;stroke:#6acc64;" x="145.961437" xlink:href="#m2f6c97e6c3" y="365.599334"/>
     <use style="fill:#6acc64;stroke:#6acc64;" x="189.698437" xlink:href="#m2f6c97e6c3" y="345.608358"/>
     <use style="fill:#6acc64;stroke:#6acc64;" x="73.066437" xlink:href="#m2f6c97e6c3" y="399.176408"/>
     <use style="fill:#6acc64;stroke:#6acc64;" x="43.908437" xlink:href="#m2f6c97e6c3" y="412.568421"/>
     <use style="fill:#6acc64;stroke:#6acc64;" x="160.540437" xlink:href="#m2f6c97e6c3" y="359.000371"/>
     <use style="fill:#6acc64;stroke:#6acc64;" x="87.645437" xlink:href="#m2f6c97e6c3" y="392.577446"/>
     <use style="fill:#6acc64;stroke:#6acc64;" x="58.487437" xlink:href="#m2f6c97e6c3" y="405.969458"/>
    </g>
   </g>
   <g id="line2d_36">
    <path clip-path="url(#p1fc88d1142)" d="M 43.908437 420.111353 
L 45.381064 419.131649 
L 46.85369 418.151946 
L 48.326316 417.172242 
L 49.798943 416.192539 
L 51.271569 415.212836 
L 52.744195 414.233132 
L 54.216821 413.253429 
L 55.689448 412.273725 
L 57.162074 411.294022 
L 58.6347 410.314319 
L 60.107326 409.334615 
L 61.579953 408.354912 
L 63.052579 407.375208 
L 64.525205 406.395505 
L 65.997831 405.415802 
L 67.470458 404.436098 
L 68.943084 403.456395 
L 70.41571 402.476692 
L 71.888336 401.496988 
L 73.360963 400.517285 
L 74.833589 399.537581 
L 76.306215 398.557878 
L 77.778842 397.578175 
L 79.251468 396.598471 
L 80.724094 395.618768 
L 82.19672 394.639064 
L 83.669347 393.659361 
L 85.141973 392.679658 
L 86.614599 391.699954 
L 88.087225 390.720251 
L 89.559852 389.740547 
L 91.032478 388.760844 
L 92.505104 387.781141 
L 93.97773 386.801437 
L 95.450357 385.821734 
L 96.922983 384.842031 
L 98.395609 383.862327 
L 99.868235 382.882624 
L 101.340862 381.90292 
L 102.813488 380.923217 
L 104.286114 379.943514 
L 105.758741 378.96381 
L 107.231367 377.984107 
L 108.703993 377.004403 
L 110.176619 376.0247 
L 111.649246 375.044997 
L 113.121872 374.065293 
L 114.594498 373.08559 
L 116.067124 372.105886 
L 117.539751 371.126183 
L 119.012377 370.14648 
L 120.485003 369.166776 
L 121.957629 368.187073 
L 123.430256 367.207369 
L 124.902882 366.227666 
L 126.375508 365.247963 
L 127.848134 364.268259 
L 129.320761 363.288556 
L 130.793387 362.308853 
L 132.266013 361.329149 
L 133.73864 360.349446 
L 135.211266 359.369742 
L 136.683892 358.390039 
L 138.156518 357.410336 
L 139.629145 356.430632 
L 141.101771 355.450929 
L 142.574397 354.471225 
L 144.047023 353.491522 
L 145.51965 352.511819 
L 146.992276 351.532115 
L 148.464902 350.552412 
L 149.937528 349.572708 
L 151.410155 348.593005 
L 152.882781 347.613302 
L 154.355407 346.633598 
L 155.828033 345.653895 
L 157.30066 344.674192 
L 158.773286 343.694488 
L 160.245912 342.714785 
L 161.718539 341.735081 
L 163.191165 340.755378 
L 164.663791 339.775675 
L 166.136417 338.795971 
L 167.609044 337.816268 
L 169.08167 336.836564 
L 170.554296 335.856861 
L 172.026922 334.877158 
L 173.499549 333.897454 
L 174.972175 332.917751 
L 176.444801 331.938047 
L 177.917427 330.958344 
L 179.390054 329.978641 
L 180.86268 328.998937 
L 182.335306 328.019234 
L 183.807932 327.039531 
L 185.280559 326.059827 
L 186.753185 325.080124 
L 188.225811 324.10042 
L 189.698437 323.120717 
" style="fill:none;stroke:#6acc64;stroke-linecap:round;stroke-width:2.25;"/>
   </g>
   <g id="patch_9">
    <path d="M 43.908437 466.369375 
L 43.908437 260.559375 
" style="fill:none;stroke:#262626;stroke-linecap:square;stroke-linejoin:miter;stroke-width:1.25;"/>
   </g>
   <g id="patch_10">
    <path d="M 43.908437 466.369375 
L 262.593437 466.369375 
" style="fill:none;stroke:#262626;stroke-linecap:square;stroke-linejoin:miter;stroke-width:1.25;"/>
   </g>
   <g id="text_24">
    <!-- pearson: 0.81629 -->
    <g style="fill:#262626;" transform="translate(54.842687 279.474875)scale(0.12 -0.12)">
     <use xlink:href="#ArialMT-70"/>
     <use x="55.615234" xlink:href="#ArialMT-65"/>
     <use x="111.230469" xlink:href="#ArialMT-61"/>
     <use x="166.845703" xlink:href="#ArialMT-72"/>
     <use x="200.146484" xlink:href="#ArialMT-73"/>
     <use x="250.146484" xlink:href="#ArialMT-6f"/>
     <use x="305.761719" xlink:href="#ArialMT-6e"/>
     <use x="361.376953" xlink:href="#ArialMT-3a"/>
     <use x="389.160156" xlink:href="#ArialMT-20"/>
     <use x="416.943359" xlink:href="#ArialMT-30"/>
     <use x="472.558594" xlink:href="#ArialMT-2e"/>
     <use x="500.341797" xlink:href="#ArialMT-38"/>
     <use x="555.957031" xlink:href="#ArialMT-31"/>
     <use x="611.572266" xlink:href="#ArialMT-36"/>
     <use x="667.1875" xlink:href="#ArialMT-32"/>
     <use x="722.802734" xlink:href="#ArialMT-39"/>
    </g>
    <!-- spearman: 0.99091 -->
    <g style="fill:#262626;" transform="translate(54.842687 292.209875)scale(0.12 -0.12)">
     <use xlink:href="#ArialMT-73"/>
     <use x="50" xlink:href="#ArialMT-70"/>
     <use x="105.615234" xlink:href="#ArialMT-65"/>
     <use x="161.230469" xlink:href="#ArialMT-61"/>
     <use x="216.845703" xlink:href="#ArialMT-72"/>
     <use x="250.146484" xlink:href="#ArialMT-6d"/>
     <use x="333.447266" xlink:href="#ArialMT-61"/>
     <use x="389.0625" xlink:href="#ArialMT-6e"/>
     <use x="444.677734" xlink:href="#ArialMT-3a"/>
     <use x="472.460938" xlink:href="#ArialMT-20"/>
     <use x="500.244141" xlink:href="#ArialMT-30"/>
     <use x="555.859375" xlink:href="#ArialMT-2e"/>
     <use x="583.642578" xlink:href="#ArialMT-39"/>
     <use x="639.257812" xlink:href="#ArialMT-39"/>
     <use x="694.873047" xlink:href="#ArialMT-30"/>
     <use x="750.488281" xlink:href="#ArialMT-39"/>
     <use x="806.103516" xlink:href="#ArialMT-31"/>
    </g>
    <!-- kendall: 0.96364 -->
    <g style="fill:#262626;" transform="translate(54.842687 304.902125)scale(0.12 -0.12)">
     <use xlink:href="#ArialMT-6b"/>
     <use x="50" xlink:href="#ArialMT-65"/>
     <use x="105.615234" xlink:href="#ArialMT-6e"/>
     <use x="161.230469" xlink:href="#ArialMT-64"/>
     <use x="216.845703" xlink:href="#ArialMT-61"/>
     <use x="272.460938" xlink:href="#ArialMT-6c"/>
     <use x="294.677734" xlink:href="#ArialMT-6c"/>
     <use x="316.894531" xlink:href="#ArialMT-3a"/>
     <use x="344.677734" xlink:href="#ArialMT-20"/>
     <use x="372.460938" xlink:href="#ArialMT-30"/>
     <use x="428.076172" xlink:href="#ArialMT-2e"/>
     <use x="455.859375" xlink:href="#ArialMT-39"/>
     <use x="511.474609" xlink:href="#ArialMT-36"/>
     <use x="567.089844" xlink:href="#ArialMT-33"/>
     <use x="622.705078" xlink:href="#ArialMT-36"/>
     <use x="678.320312" xlink:href="#ArialMT-34"/>
    </g>
    <!-- xi: 0.72500 -->
    <g style="fill:#262626;" transform="translate(54.842687 317.594375)scale(0.12 -0.12)">
     <use xlink:href="#ArialMT-78"/>
     <use x="50" xlink:href="#ArialMT-69"/>
     <use x="72.216797" xlink:href="#ArialMT-3a"/>
     <use x="100" xlink:href="#ArialMT-20"/>
     <use x="127.783203" xlink:href="#ArialMT-30"/>
     <use x="183.398438" xlink:href="#ArialMT-2e"/>
     <use x="211.181641" xlink:href="#ArialMT-37"/>
     <use x="266.796875" xlink:href="#ArialMT-32"/>
     <use x="322.412109" xlink:href="#ArialMT-35"/>
     <use x="378.027344" xlink:href="#ArialMT-30"/>
     <use x="433.642578" xlink:href="#ArialMT-30"/>
    </g>
   </g>
   <g id="text_25">
    <!-- dataset = III -->
    <g style="fill:#262626;" transform="translate(121.732187 254.559375)scale(0.12 -0.12)">
     <use xlink:href="#ArialMT-64"/>
     <use x="55.615234" xlink:href="#ArialMT-61"/>
     <use x="111.230469" xlink:href="#ArialMT-74"/>
     <use x="139.013672" xlink:href="#ArialMT-61"/>
     <use x="194.628906" xlink:href="#ArialMT-73"/>
     <use x="244.628906" xlink:href="#ArialMT-65"/>
     <use x="300.244141" xlink:href="#ArialMT-74"/>
     <use x="328.027344" xlink:href="#ArialMT-20"/>
     <use x="355.810547" xlink:href="#ArialMT-3d"/>
     <use x="414.208984" xlink:href="#ArialMT-20"/>
     <use x="441.992188" xlink:href="#ArialMT-49"/>
     <use x="469.775391" xlink:href="#ArialMT-49"/>
     <use x="497.558594" xlink:href="#ArialMT-49"/>
    </g>
   </g>
  </g>
  <g id="axes_4">
   <g id="patch_11">
    <path d="M 281.553437 466.369375 
L 500.238437 466.369375 
L 500.238437 260.559375 
L 281.553437 260.559375 
z
" style="fill:#ffffff;"/>
   </g>
   <g id="matplotlib.axis_7">
    <g id="xtick_19">
     <g id="line2d_37">
      <g>
       <use style="fill:#262626;stroke:#262626;stroke-width:1.25;" x="296.132437" xlink:href="#m4992048040" y="466.369375"/>
      </g>
     </g>
     <g id="text_26">
      <!-- 5.0 -->
      <g style="fill:#262626;" transform="translate(288.487437 483.742969)scale(0.11 -0.11)">
       <use xlink:href="#ArialMT-35"/>
       <use x="55.615234" xlink:href="#ArialMT-2e"/>
       <use x="83.398438" xlink:href="#ArialMT-30"/>
      </g>
     </g>
    </g>
    <g id="xtick_20">
     <g id="line2d_38">
      <g>
       <use style="fill:#262626;stroke:#262626;stroke-width:1.25;" x="332.579937" xlink:href="#m4992048040" y="466.369375"/>
      </g>
     </g>
     <g id="text_27">
      <!-- 7.5 -->
      <g style="fill:#262626;" transform="translate(324.934937 483.742969)scale(0.11 -0.11)">
       <use xlink:href="#ArialMT-37"/>
       <use x="55.615234" xlink:href="#ArialMT-2e"/>
       <use x="83.398438" xlink:href="#ArialMT-35"/>
      </g>
     </g>
    </g>
    <g id="xtick_21">
     <g id="line2d_39">
      <g>
       <use style="fill:#262626;stroke:#262626;stroke-width:1.25;" x="369.027437" xlink:href="#m4992048040" y="466.369375"/>
      </g>
     </g>
     <g id="text_28">
      <!-- 10.0 -->
      <g style="fill:#262626;" transform="translate(358.323922 483.742969)scale(0.11 -0.11)">
       <use xlink:href="#ArialMT-31"/>
       <use x="55.615234" xlink:href="#ArialMT-30"/>
       <use x="111.230469" xlink:href="#ArialMT-2e"/>
       <use x="139.013672" xlink:href="#ArialMT-30"/>
      </g>
     </g>
    </g>
    <g id="xtick_22">
     <g id="line2d_40">
      <g>
       <use style="fill:#262626;stroke:#262626;stroke-width:1.25;" x="405.474937" xlink:href="#m4992048040" y="466.369375"/>
      </g>
     </g>
     <g id="text_29">
      <!-- 12.5 -->
      <g style="fill:#262626;" transform="translate(394.771422 483.742969)scale(0.11 -0.11)">
       <use xlink:href="#ArialMT-31"/>
       <use x="55.615234" xlink:href="#ArialMT-32"/>
       <use x="111.230469" xlink:href="#ArialMT-2e"/>
       <use x="139.013672" xlink:href="#ArialMT-35"/>
      </g>
     </g>
    </g>
    <g id="xtick_23">
     <g id="line2d_41">
      <g>
       <use style="fill:#262626;stroke:#262626;stroke-width:1.25;" x="441.922437" xlink:href="#m4992048040" y="466.369375"/>
      </g>
     </g>
     <g id="text_30">
      <!-- 15.0 -->
      <g style="fill:#262626;" transform="translate(431.218922 483.742969)scale(0.11 -0.11)">
       <use xlink:href="#ArialMT-31"/>
       <use x="55.615234" xlink:href="#ArialMT-35"/>
       <use x="111.230469" xlink:href="#ArialMT-2e"/>
       <use x="139.013672" xlink:href="#ArialMT-30"/>
      </g>
     </g>
    </g>
    <g id="xtick_24">
     <g id="line2d_42">
      <g>
       <use style="fill:#262626;stroke:#262626;stroke-width:1.25;" x="478.369937" xlink:href="#m4992048040" y="466.369375"/>
      </g>
     </g>
     <g id="text_31">
      <!-- 17.5 -->
      <g style="fill:#262626;" transform="translate(467.666422 483.742969)scale(0.11 -0.11)">
       <use xlink:href="#ArialMT-31"/>
       <use x="55.615234" xlink:href="#ArialMT-37"/>
       <use x="111.230469" xlink:href="#ArialMT-2e"/>
       <use x="139.013672" xlink:href="#ArialMT-35"/>
      </g>
     </g>
    </g>
    <g id="text_32">
     <!-- x -->
     <g style="fill:#262626;" transform="translate(387.895937 498.518594)scale(0.12 -0.12)">
      <use xlink:href="#ArialMT-78"/>
     </g>
    </g>
   </g>
   <g id="matplotlib.axis_8">
    <g id="ytick_16">
     <g id="line2d_43">
      <g>
       <use style="fill:#262626;stroke:#262626;stroke-width:1.25;" x="281.553437" xlink:href="#m954537abf5" y="439.546533"/>
      </g>
     </g>
    </g>
    <g id="ytick_17">
     <g id="line2d_44">
      <g>
       <use style="fill:#262626;stroke:#262626;stroke-width:1.25;" x="281.553437" xlink:href="#m954537abf5" y="400.729105"/>
      </g>
     </g>
    </g>
    <g id="ytick_18">
     <g id="line2d_45">
      <g>
       <use style="fill:#262626;stroke:#262626;stroke-width:1.25;" x="281.553437" xlink:href="#m954537abf5" y="361.911678"/>
      </g>
     </g>
    </g>
    <g id="ytick_19">
     <g id="line2d_46">
      <g>
       <use style="fill:#262626;stroke:#262626;stroke-width:1.25;" x="281.553437" xlink:href="#m954537abf5" y="323.094251"/>
      </g>
     </g>
    </g>
    <g id="ytick_20">
     <g id="line2d_47">
      <g>
       <use style="fill:#262626;stroke:#262626;stroke-width:1.25;" x="281.553437" xlink:href="#m954537abf5" y="284.276823"/>
      </g>
     </g>
    </g>
   </g>
   <g id="PathCollection_4">
    <defs>
     <path d="M 0 3.535534 
C 0.937635 3.535534 1.836992 3.163008 2.5 2.5 
C 3.163008 1.836992 3.535534 0.937635 3.535534 0 
C 3.535534 -0.937635 3.163008 -1.836992 2.5 -2.5 
C 1.836992 -3.163008 0.937635 -3.535534 0 -3.535534 
C -0.937635 -3.535534 -1.836992 -3.163008 -2.5 -2.5 
C -3.163008 -1.836992 -3.535534 -0.937635 -3.535534 0 
C -3.535534 0.937635 -3.163008 1.836992 -2.5 2.5 
C -1.836992 3.163008 -0.937635 3.535534 0 3.535534 
z
" id="m88f6f00797" style="stroke:#d65f5f;"/>
    </defs>
    <g clip-path="url(#p047244ca21)">
     <use style="fill:#d65f5f;stroke:#d65f5f;" x="339.869437" xlink:href="#m88f6f00797" y="389.472051"/>
     <use style="fill:#d65f5f;stroke:#d65f5f;" x="339.869437" xlink:href="#m88f6f00797" y="405.387197"/>
     <use style="fill:#d65f5f;stroke:#d65f5f;" x="339.869437" xlink:href="#m88f6f00797" y="367.540205"/>
     <use style="fill:#d65f5f;stroke:#d65f5f;" x="339.869437" xlink:href="#m88f6f00797" y="345.608358"/>
     <use style="fill:#d65f5f;stroke:#d65f5f;" x="339.869437" xlink:href="#m88f6f00797" y="352.789582"/>
     <use style="fill:#d65f5f;stroke:#d65f5f;" x="339.869437" xlink:href="#m88f6f00797" y="380.544043"/>
     <use style="fill:#d65f5f;stroke:#d65f5f;" x="339.869437" xlink:href="#m88f6f00797" y="415.285641"/>
     <use style="fill:#d65f5f;stroke:#d65f5f;" x="500.238437" xlink:href="#m88f6f00797" y="274.572466"/>
     <use style="fill:#d65f5f;stroke:#d65f5f;" x="339.869437" xlink:href="#m88f6f00797" y="409.268939"/>
     <use style="fill:#d65f5f;stroke:#d65f5f;" x="339.869437" xlink:href="#m88f6f00797" y="363.658462"/>
     <use style="fill:#d65f5f;stroke:#d65f5f;" x="339.869437" xlink:href="#m88f6f00797" y="383.45535"/>
    </g>
   </g>
   <g id="line2d_48">
    <path clip-path="url(#p047244ca21)" d="M 339.869437 381.300983 
L 341.489326 380.222917 
L 343.109215 379.144851 
L 344.729104 378.066785 
L 346.348993 376.98872 
L 347.968882 375.910654 
L 349.588771 374.832588 
L 351.20866 373.754522 
L 352.828549 372.676456 
L 354.448437 371.59839 
L 356.068326 370.520325 
L 357.688215 369.442259 
L 359.308104 368.364193 
L 360.927993 367.286127 
L 362.547882 366.208061 
L 364.167771 365.129996 
L 365.78766 364.05193 
L 367.407549 362.973864 
L 369.027437 361.895798 
L 370.647326 360.817732 
L 372.267215 359.739666 
L 373.887104 358.661601 
L 375.506993 357.583535 
L 377.126882 356.505469 
L 378.746771 355.427403 
L 380.36666 354.349337 
L 381.986549 353.271271 
L 383.606437 352.193206 
L 385.226326 351.11514 
L 386.846215 350.037074 
L 388.466104 348.959008 
L 390.085993 347.880942 
L 391.705882 346.802877 
L 393.325771 345.724811 
L 394.94566 344.646745 
L 396.565549 343.568679 
L 398.185437 342.490613 
L 399.805326 341.412547 
L 401.425215 340.334482 
L 403.045104 339.256416 
L 404.664993 338.17835 
L 406.284882 337.100284 
L 407.904771 336.022218 
L 409.52466 334.944152 
L 411.144549 333.866087 
L 412.764437 332.788021 
L 414.384326 331.709955 
L 416.004215 330.631889 
L 417.624104 329.553823 
L 419.243993 328.475757 
L 420.863882 327.397692 
L 422.483771 326.319626 
L 424.10366 325.24156 
L 425.723549 324.163494 
L 427.343437 323.085428 
L 428.963326 322.007363 
L 430.583215 320.929297 
L 432.203104 319.851231 
L 433.822993 318.773165 
L 435.442882 317.695099 
L 437.062771 316.617033 
L 438.68266 315.538968 
L 440.302549 314.460902 
L 441.922437 313.382836 
L 443.542326 312.30477 
L 445.162215 311.226704 
L 446.782104 310.148638 
L 448.401993 309.070573 
L 450.021882 307.992507 
L 451.641771 306.914441 
L 453.26166 305.836375 
L 454.881549 304.758309 
L 456.501437 303.680244 
L 458.121326 302.602178 
L 459.741215 301.524112 
L 461.361104 300.446046 
L 462.980993 299.36798 
L 464.600882 298.289914 
L 466.220771 297.211849 
L 467.84066 296.133783 
L 469.460549 295.055717 
L 471.080437 293.977651 
L 472.700326 292.899585 
L 474.320215 291.821519 
L 475.940104 290.743454 
L 477.559993 289.665388 
L 479.179882 288.587322 
L 480.799771 287.509256 
L 482.41966 286.43119 
L 484.039549 285.353125 
L 485.659437 284.275059 
L 487.279326 283.196993 
L 488.899215 282.118927 
L 490.519104 281.040861 
L 492.138993 279.962795 
L 493.758882 278.88473 
L 495.378771 277.806664 
L 496.99866 276.728598 
L 498.618549 275.650532 
L 500.238437 274.572466 
" style="fill:none;stroke:#d65f5f;stroke-linecap:round;stroke-width:2.25;"/>
   </g>
   <g id="patch_12">
    <path d="M 281.553437 466.369375 
L 281.553437 260.559375 
" style="fill:none;stroke:#262626;stroke-linecap:square;stroke-linejoin:miter;stroke-width:1.25;"/>
   </g>
   <g id="patch_13">
    <path d="M 281.553437 466.369375 
L 500.238437 466.369375 
" style="fill:none;stroke:#262626;stroke-linecap:square;stroke-linejoin:miter;stroke-width:1.25;"/>
   </g>
   <g id="text_33">
    <!-- pearson: 0.81652 -->
    <g style="fill:#262626;" transform="translate(292.487687 279.474875)scale(0.12 -0.12)">
     <use xlink:href="#ArialMT-70"/>
     <use x="55.615234" xlink:href="#ArialMT-65"/>
     <use x="111.230469" xlink:href="#ArialMT-61"/>
     <use x="166.845703" xlink:href="#ArialMT-72"/>
     <use x="200.146484" xlink:href="#ArialMT-73"/>
     <use x="250.146484" xlink:href="#ArialMT-6f"/>
     <use x="305.761719" xlink:href="#ArialMT-6e"/>
     <use x="361.376953" xlink:href="#ArialMT-3a"/>
     <use x="389.160156" xlink:href="#ArialMT-20"/>
     <use x="416.943359" xlink:href="#ArialMT-30"/>
     <use x="472.558594" xlink:href="#ArialMT-2e"/>
     <use x="500.341797" xlink:href="#ArialMT-38"/>
     <use x="555.957031" xlink:href="#ArialMT-31"/>
     <use x="611.572266" xlink:href="#ArialMT-36"/>
     <use x="667.1875" xlink:href="#ArialMT-35"/>
     <use x="722.802734" xlink:href="#ArialMT-32"/>
    </g>
    <!-- spearman: 0.50000 -->
    <g style="fill:#262626;" transform="translate(292.487687 292.209875)scale(0.12 -0.12)">
     <use xlink:href="#ArialMT-73"/>
     <use x="50" xlink:href="#ArialMT-70"/>
     <use x="105.615234" xlink:href="#ArialMT-65"/>
     <use x="161.230469" xlink:href="#ArialMT-61"/>
     <use x="216.845703" xlink:href="#ArialMT-72"/>
     <use x="250.146484" xlink:href="#ArialMT-6d"/>
     <use x="333.447266" xlink:href="#ArialMT-61"/>
     <use x="389.0625" xlink:href="#ArialMT-6e"/>
     <use x="444.677734" xlink:href="#ArialMT-3a"/>
     <use x="472.460938" xlink:href="#ArialMT-20"/>
     <use x="500.244141" xlink:href="#ArialMT-30"/>
     <use x="555.859375" xlink:href="#ArialMT-2e"/>
     <use x="583.642578" xlink:href="#ArialMT-35"/>
     <use x="639.257812" xlink:href="#ArialMT-30"/>
     <use x="694.873047" xlink:href="#ArialMT-30"/>
     <use x="750.488281" xlink:href="#ArialMT-30"/>
     <use x="806.103516" xlink:href="#ArialMT-30"/>
    </g>
    <!-- kendall: 0.42640 -->
    <g style="fill:#262626;" transform="translate(292.487687 304.902125)scale(0.12 -0.12)">
     <use xlink:href="#ArialMT-6b"/>
     <use x="50" xlink:href="#ArialMT-65"/>
     <use x="105.615234" xlink:href="#ArialMT-6e"/>
     <use x="161.230469" xlink:href="#ArialMT-64"/>
     <use x="216.845703" xlink:href="#ArialMT-61"/>
     <use x="272.460938" xlink:href="#ArialMT-6c"/>
     <use x="294.677734" xlink:href="#ArialMT-6c"/>
     <use x="316.894531" xlink:href="#ArialMT-3a"/>
     <use x="344.677734" xlink:href="#ArialMT-20"/>
     <use x="372.460938" xlink:href="#ArialMT-30"/>
     <use x="428.076172" xlink:href="#ArialMT-2e"/>
     <use x="455.859375" xlink:href="#ArialMT-34"/>
     <use x="511.474609" xlink:href="#ArialMT-32"/>
     <use x="567.089844" xlink:href="#ArialMT-36"/>
     <use x="622.705078" xlink:href="#ArialMT-34"/>
     <use x="678.320312" xlink:href="#ArialMT-30"/>
    </g>
    <!-- xi: 0.10000 -->
    <g style="fill:#262626;" transform="translate(292.487687 317.594375)scale(0.12 -0.12)">
     <use xlink:href="#ArialMT-78"/>
     <use x="50" xlink:href="#ArialMT-69"/>
     <use x="72.216797" xlink:href="#ArialMT-3a"/>
     <use x="100" xlink:href="#ArialMT-20"/>
     <use x="127.783203" xlink:href="#ArialMT-30"/>
     <use x="183.398438" xlink:href="#ArialMT-2e"/>
     <use x="211.181641" xlink:href="#ArialMT-31"/>
     <use x="266.796875" xlink:href="#ArialMT-30"/>
     <use x="322.412109" xlink:href="#ArialMT-30"/>
     <use x="378.027344" xlink:href="#ArialMT-30"/>
     <use x="433.642578" xlink:href="#ArialMT-30"/>
    </g>
   </g>
   <g id="text_34">
    <!-- dataset = IV -->
    <g style="fill:#262626;" transform="translate(358.70875 254.559375)scale(0.12 -0.12)">
     <defs>
      <path d="M 1803 0 
L 28 4581 
L 684 4581 
L 1875 1253 
Q 2019 853 2116 503 
Q 2222 878 2363 1253 
L 3600 4581 
L 4219 4581 
L 2425 0 
L 1803 0 
z
" id="ArialMT-56" transform="scale(0.015625)"/>
     </defs>
     <use xlink:href="#ArialMT-64"/>
     <use x="55.615234" xlink:href="#ArialMT-61"/>
     <use x="111.230469" xlink:href="#ArialMT-74"/>
     <use x="139.013672" xlink:href="#ArialMT-61"/>
     <use x="194.628906" xlink:href="#ArialMT-73"/>
     <use x="244.628906" xlink:href="#ArialMT-65"/>
     <use x="300.244141" xlink:href="#ArialMT-74"/>
     <use x="328.027344" xlink:href="#ArialMT-20"/>
     <use x="355.810547" xlink:href="#ArialMT-3d"/>
     <use x="414.208984" xlink:href="#ArialMT-20"/>
     <use x="441.992188" xlink:href="#ArialMT-49"/>
     <use x="469.775391" xlink:href="#ArialMT-56"/>
    </g>
   </g>
  </g>
 </g>
 <defs>
  <clipPath id="p733d1f1400">
   <rect height="205.81" width="218.685" x="43.908437" y="21.789375"/>
  </clipPath>
  <clipPath id="p351ba04200">
   <rect height="205.81" width="218.685" x="281.553437" y="21.789375"/>
  </clipPath>
  <clipPath id="p1fc88d1142">
   <rect height="205.81" width="218.685" x="43.908437" y="260.559375"/>
  </clipPath>
  <clipPath id="p047244ca21">
   <rect height="205.81" width="218.685" x="281.553437" y="260.559375"/>
  </clipPath>
 </defs>
</svg>
